# xmcd CD database file
#
# Track frame offsets:
#	150
#	18051
#	37731
#	55779
#	70383
#	86223
#	106623
#	124275
#	142083
#	156195
#
# Disc length: 2398 seconds
#
# Revision: 0
# Processed by: cddbd v1.5.2PL0 Copyright (c) Steve Scherf et al.
# Submitted via: CDex 1.51
#
DISCID=7e095c0a
DTITLE=Tim Harwill - Al I Really Need
DYEAR=2006
DGENRE=Country
TTITLE0=All I Really Need
TTITLE1=While I Can
TTITLE2=All Too Well
TTITLE3=It's Hard
TTITLE4=She's Got Comfort
TTITLE5=One More Last Call
TTITLE6=What You're Goin' Through
TTITLE7=Don't Lose My Hair
TTITLE8=In A House
TTITLE9=Seasons
EXTD=YEAR: 2006
EXTT0=
EXTT1=
EXTT2=
EXTT3=
EXTT4=
EXTT5=
EXTT6=
EXTT7=
EXTT8=
EXTT9=
PLAYORDER=
